<?xml version="1.0" standalone="no"?>
<!DOCTYPE svg PUBLIC "-//W3C//DTD SVG 20010904//EN"
 "http://www.w3.org/TR/2001/REC-SVG-20010904/DTD/svg10.dtd">
<svg version="1.0" xmlns="http://www.w3.org/2000/svg"
 width="1212.000000pt" height="1280.000000pt" viewBox="0 0 1212.000000 1280.000000"
 preserveAspectRatio="xMidYMid meet">
<metadata>
Created by potrace 1.15, written by Peter Selinger 2001-2017
</metadata>
<g transform="translate(0.000000,1280.000000) scale(0.100000,-0.100000)"
fill="#000000" stroke="none">
<path d="M149 12786 c-60 -21 -96 -54 -125 -112 l-27 -55 17 -237 c239 -3324
1089 -5806 2554 -7462 196 -221 524 -537 747 -721 1051 -864 2286 -1345 3725
-1449 329 -24 897 -11 1240 30 85 10 155 17 155 17 1 -1 -3 -96 -8 -212 -68
-1710 -92 -2376 -85 -2415 15 -79 92 -153 174 -166 72 -10 129 11 195 75 127
122 3373 3698 3387 3731 23 54 26 104 10 152 -24 68 -3011 4695 -3064 4745
-111 104 -277 66 -341 -79 -14 -33 -20 -170 -106 -2385 -7 -177 -15 -324 -18
-327 -10 -10 -280 -56 -455 -77 -228 -27 -691 -37 -956 -20 -324 21 -686 78
-994 156 -130 34 -384 108 -429 126 -11 4 -78 29 -150 55 -948 343 -1878 998
-2653 1867 -994 1115 -1793 2558 -2458 4441 -40 115 -85 226 -98 246 -29 45
-114 90 -165 90 -20 -1 -52 -7 -72 -14z"/>
</g>
</svg>
